HIERARCHY
ROOT Hips
{
  OFFSET 0.0000 0.0000 0.0000
  CHANNELS 6 Xposition Yposition Zposition Zrotation Xrotation Yrotation
  JOINT LeftHip
  {
    OFFSET 5.5000 0.0000 -0.0000
    CHANNELS 3 Zrotation Xrotation Yrotation
    JOINT LeftKnee
    {
      OFFSET -0.0000 -17.5000 -0.0000
      CHANNELS 3 Zrotation Xrotation Yrotation
      JOINT LeftAnkle
      {
        OFFSET 0.0000 -17.0000 -0.0000
        CHANNELS 3 Zrotation Xrotation Yrotation
        End Site
        {
            OFFSET 0.0000 -4.7000 -2.0000
        }
      }
    }
  }
  JOINT RightHip
  {
    OFFSET -5.5000 -0.0000 0.0000
    CHANNELS 3 Zrotation Xrotation Yrotation
    JOINT RightKnee
    {
      OFFSET 0.0000 -17.5000 0.0000
      CHANNELS 3 Zrotation Xrotation Yrotation
      JOINT RightAnkle
      {
        OFFSET 0.0000 -17.0000 0.0000
        CHANNELS 3 Zrotation Xrotation Yrotation
        End Site
        {
            OFFSET 0.0000 -4.7000 -2.0000
        }
      }
    }
  }
  JOINT Chest
  {
    OFFSET 0.0000 3.0000 -1.0000
    CHANNELS 3 Zrotation Xrotation Yrotation
    JOINT LeftCollar
    {
      OFFSET 0.0000 18.0000 1.0000
      CHANNELS 3 Zrotation Xrotation Yrotation
      JOINT LeftShoulder
      {
        OFFSET 6.5000 0.0000 0.0000
        CHANNELS 3 Zrotation Xrotation Yrotation
        JOINT LeftElbow
        {
          OFFSET 0.0000 -11.0000 0.0000
          CHANNELS 3 Zrotation Xrotation Yrotation
          JOINT LeftWrist
          {
            OFFSET 0.0000 -10.5000 -0.0000
            CHANNELS 3 Zrotation Xrotation Yrotation
            End Site
            {
                OFFSET -0.0000 -6.0000 0.0000
            }
          }
        }
      }
    }
    JOINT RightCollar
    {
      OFFSET 0.0000 18.0000 1.0000
      CHANNELS 3 Zrotation Xrotation Yrotation
      JOINT RightShoulder
      {
        OFFSET -6.5000 -0.0000 0.0000
        CHANNELS 3 Zrotation Xrotation Yrotation
        JOINT RightElbow
        {
          OFFSET 0.0000 -11.0000 -0.0000
          CHANNELS 3 Zrotation Xrotation Yrotation
          JOINT RightWrist
          {
            OFFSET 0.0000 -10.5000 0.0000
            CHANNELS 3 Zrotation Xrotation Yrotation
            End Site
            {
                OFFSET 0.0000 -6.0000 -0.0000
            }
          }
        }
      }
    }
    JOINT Neck
    {
      OFFSET 0.0000 18.0000 1.0000
      CHANNELS 3 Zrotation Xrotation Yrotation
      JOINT Head
      {
        OFFSET 0.0000 3.0000 0.0000
        CHANNELS 3 Zrotation Xrotation Yrotation
        End Site
        {
            OFFSET 0.0000 7.0000 0.0000
        }
      }
    }
  }
}
MOTION
Frames:	24
Frame Time:	0.033333
-0.4059 39.8974 -0.3012 -0.06 0.02 0.05 -0.92 -9.54 -0.01 0.00 24.20 0.11 0.67 -10.61 0.81 2.16 -9.08 0.26 0.00 24.17 -0.11 -2.18 -11.00 -1.14 0.10 6.02 -0.25 0.00 0.00 0.00 10.49 -10.73 -4.58 0.00 -9.61 0.92 -15.80 1.89 -13.63 0.00 0.00 0.00 -10.28 -10.90 2.70 -0.00 -9.71 -0.93 17.21 2.12 13.82 0.00 0.00 0.00 0.07 -10.65 -0.38 
-0.4059 39.8974 -0.3012 -0.06 0.02 0.05 -0.92 -9.54 -0.01 0.00 24.20 0.11 0.67 -10.61 0.81 2.16 -9.08 0.26 0.00 24.17 -0.11 -2.18 -11.00 -1.14 0.10 6.02 -0.25 0.00 0.00 0.00 10.49 -10.73 -4.58 0.00 -9.61 0.92 -15.80 1.89 -13.63 0.00 0.00 0.00 -10.28 -10.90 2.70 -0.00 -9.71 -0.93 17.21 2.12 13.82 0.00 0.00 0.00 0.07 -10.65 -0.38 
-0.4059 39.8974 -0.3012 -0.06 0.02 0.05 -0.92 -9.54 -0.01 0.00 24.20 0.11 0.67 -10.61 0.81 2.16 -9.08 0.26 0.00 24.17 -0.11 -2.18 -11.00 -1.14 0.10 6.02 -0.25 0.00 0.00 0.00 10.49 -10.73 -4.58 0.00 -9.61 0.92 -15.80 1.89 -13.63 0.00 0.00 0.00 -10.28 -10.90 2.70 -0.00 -9.71 -0.93 17.21 2.12 13.82 0.00 0.00 0.00 0.07 -10.65 -0.38 
-0.4059 39.8974 -0.3012 -0.06 0.02 0.05 -0.92 -9.54 -0.01 0.00 24.20 0.11 0.67 -10.61 0.81 2.16 -9.08 0.26 0.00 24.17 -0.11 -2.18 -11.00 -1.14 0.10 6.02 -0.25 0.00 0.00 0.00 10.49 -10.73 -4.58 0.00 -9.61 0.92 -15.80 1.89 -13.63 0.00 0.00 0.00 -10.28 -10.90 2.70 0.00 -9.70 -0.93 17.21 2.11 13.84 0.00 0.00 0.00 0.07 -10.65 -0.38 
-0.4059 39.8974 -0.3012 -0.06 0.02 0.05 -0.92 -9.54 -0.01 0.00 24.20 0.11 0.67 -10.61 0.81 2.16 -9.08 0.26 0.00 24.17 -0.11 -2.18 -11.00 -1.14 0.10 6.02 -0.25 0.00 0.00 0.00 10.49 -10.73 -4.58 0.00 -9.61 0.92 -15.80 1.89 -13.63 0.00 0.00 0.00 -10.28 -10.90 2.70 -0.00 -9.68 -0.92 17.21 2.10 13.88 0.00 0.00 0.00 0.07 -10.65 -0.38 
-0.4059 39.8974 -0.3012 -0.06 0.02 0.05 -0.92 -9.54 -0.01 0.00 24.20 0.11 0.67 -10.61 0.81 2.16 -9.08 0.26 0.00 24.17 -0.11 -2.18 -11.00 -1.14 0.10 6.02 -0.25 0.00 0.00 0.00 10.49 -10.73 -4.58 0.00 -9.61 0.92 -15.80 1.89 -13.63 0.00 0.00 0.00 -10.28 -10.90 2.70 0.00 -9.66 -0.92 17.20 2.08 13.93 0.00 0.00 0.00 0.07 -10.65 -0.38 
-0.4059 39.8974 -0.3012 -0.06 0.02 0.05 -0.92 -9.54 -0.01 0.00 24.20 0.11 0.67 -10.61 0.81 2.16 -9.08 0.26 0.00 24.17 -0.11 -2.18 -11.00 -1.14 0.10 6.02 -0.25 0.00 0.00 0.00 10.49 -10.73 -4.58 0.00 -9.61 0.92 -15.80 1.89 -13.63 0.00 0.00 0.00 -10.28 -10.90 2.74 0.00 -9.65 -0.88 17.19 2.07 13.92 0.00 0.00 0.00 0.07 -10.65 -0.38 
-0.4059 39.8974 -0.3012 -0.06 0.02 0.05 -0.92 -9.54 -0.01 -0.00 24.20 0.11 0.67 -10.61 0.81 2.16 -9.08 0.26 0.00 24.17 -0.11 -2.18 -11.00 -1.14 0.10 6.02 -0.25 0.00 0.00 0.00 10.49 -10.73 -4.58 -0.00 -9.61 0.92 -15.80 1.89 -13.63 0.00 0.00 0.00 -10.28 -10.90 2.78 -0.00 -9.63 -0.85 17.18 2.06 13.93 0.00 0.00 0.00 0.07 -10.60 -0.38 
-0.4058 39.8974 -0.3012 -0.06 0.02 0.05 -0.92 -9.54 -0.01 0.00 24.20 0.11 0.67 -10.61 0.81 2.16 -9.08 0.26 0.00 24.17 -0.11 -2.18 -11.00 -1.14 0.10 6.02 -0.25 0.00 0.00 0.00 10.49 -10.73 -4.58 0.00 -9.61 0.92 -15.80 1.89 -13.63 0.00 0.00 0.00 -10.28 -10.90 2.81 -0.00 -9.62 -0.84 17.18 2.06 13.96 0.00 0.00 0.00 0.07 -10.57 -0.38 
-0.4045 39.8976 -0.3020 -0.06 0.02 0.05 -0.93 -9.54 -0.04 -0.00 24.20 0.08 0.68 -10.61 0.88 2.16 -9.08 0.26 0.00 24.17 -0.11 -2.18 -11.00 -1.14 0.10 6.02 -0.25 0.00 0.00 0.00 10.49 -10.73 -4.58 0.00 -9.61 0.92 -15.80 1.89 -13.63 0.00 0.00 0.00 -10.28 -10.90 2.84 0.00 -9.61 -0.84 17.17 2.07 14.02 0.00 0.00 0.00 0.07 -10.55 -0.38 
-0.4023 39.8979 -0.3035 -0.06 0.02 0.05 -0.94 -9.54 -0.07 -0.00 24.20 0.05 0.68 -10.60 0.92 2.16 -9.08 0.26 -0.00 24.17 -0.11 -2.17 -11.00 -1.14 0.10 6.02 -0.25 0.00 0.00 0.00 10.49 -10.73 -4.58 0.00 -9.61 0.92 -15.80 1.89 -13.63 0.00 0.00 0.00 -10.28 -10.90 2.86 -0.00 -9.60 -0.84 17.18 2.08 14.08 0.00 0.00 0.00 0.07 -10.53 -0.38 
-0.4002 39.8965 -0.3040 -0.06 0.02 0.05 -0.95 -9.54 -0.10 0.00 24.20 0.05 0.69 -10.60 0.96 2.15 -9.08 0.26 0.00 24.17 -0.11 -2.17 -10.99 -1.13 0.10 6.02 -0.25 0.00 0.00 0.00 10.49 -10.73 -4.58 0.00 -9.61 0.92 -15.80 1.89 -13.63 0.00 0.00 0.00 -10.28 -10.90 2.87 0.00 -9.59 -0.86 17.21 2.10 14.15 0.00 0.00 0.00 0.07 -10.54 -0.41 
-0.3995 39.8944 -0.2885 -0.06 0.02 0.05 -0.95 -9.52 -0.12 -0.00 24.21 0.05 0.69 -10.63 0.98 2.15 -9.06 0.26 0.00 24.18 -0.11 -2.17 -11.02 -1.13 0.10 6.02 -0.25 0.00 0.00 0.00 10.49 -10.73 -4.58 -0.00 -9.61 0.92 -15.80 1.89 -13.63 0.00 0.00 0.00 -10.28 -10.90 2.88 0.00 -9.58 -0.87 17.23 2.11 14.22 0.00 0.00 0.00 0.07 -10.56 -0.45 
-0.3990 39.8926 -0.2608 -0.06 0.02 0.05 -0.96 -9.49 -0.14 0.00 24.23 0.05 0.69 -10.69 1.00 2.15 -9.02 0.26 0.00 24.19 -0.11 -2.17 -11.08 -1.14 0.10 6.02 -0.25 0.00 0.00 0.00 10.49 -10.73 -4.58 -0.00 -9.61 0.92 -15.80 1.89 -13.63 0.00 0.00 0.00 -10.28 -10.94 2.89 0.00 -9.61 -0.87 17.26 2.20 14.25 0.00 0.00 0.00 0.07 -10.58 -0.48 
-0.3979 39.8907 -0.2318 -0.06 0.02 0.05 -0.96 -9.44 -0.15 0.00 24.24 0.06 0.69 -10.74 1.01 2.15 -8.98 0.26 0.00 24.19 -0.11 -2.17 -11.14 -1.14 0.10 6.02 -0.25 0.00 0.00 0.00 10.49 -10.73 -4.58 0.00 -9.61 0.92 -15.80 1.89 -13.63 0.00 0.00 0.00 -10.28 -10.98 2.89 -0.00 -9.64 -0.88 17.30 2.26 14.29 0.00 0.00 0.00 0.07 -10.60 -0.50 
-0.3897 39.8901 -0.2088 -0.06 0.02 0.05 -0.98 -9.40 -0.16 -0.00 24.25 0.07 0.70 -10.78 1.01 2.14 -8.94 0.26 -0.00 24.21 -0.11 -2.15 -11.18 -1.14 0.09 6.02 -0.25 0.00 0.00 0.00 10.42 -10.74 -4.59 0.00 -9.62 0.92 -15.75 1.91 -13.64 0.00 0.00 0.00 -10.35 -11.02 2.89 -0.00 -9.65 -0.88 17.38 2.29 14.31 0.00 0.00 0.00 -0.01 -10.59 -0.53 
-0.3861 39.8899 -0.2059 -0.05 0.02 0.05 -0.99 -9.40 -0.17 0.00 24.25 0.07 0.71 -10.79 1.01 2.13 -8.94 0.26 0.00 24.22 -0.12 -2.14 -11.19 -1.14 0.09 6.02 -0.25 0.00 0.00 0.00 10.37 -10.74 -4.60 0.00 -9.62 0.92 -15.73 1.92 -13.64 0.00 0.00 0.00 -10.39 -11.05 2.88 0.00 -9.64 -0.89 17.43 2.29 14.35 0.00 0.00 0.00 -0.05 -10.59 -0.55 
-0.3854 39.8899 -0.2059 -0.05 0.02 0.05 -0.99 -9.40 -0.17 -0.00 24.25 0.08 0.71 -10.79 1.01 2.13 -8.94 0.26 0.00 24.23 -0.12 -2.14 -11.19 -1.13 0.08 6.02 -0.25 0.00 0.00 0.00 10.38 -10.74 -4.60 -0.00 -9.62 0.92 -15.76 1.92 -13.64 0.00 0.00 0.00 -10.42 -11.07 2.88 -0.00 -9.62 -0.89 17.45 2.29 14.41 0.00 0.00 0.00 -0.08 -10.58 -0.56 
-0.3851 39.8900 -0.2059 -0.05 0.02 0.05 -0.99 -9.39 -0.17 0.00 24.24 0.09 0.71 -10.79 1.00 2.13 -8.95 0.26 0.00 24.23 -0.12 -2.14 -11.20 -1.13 0.07 6.02 -0.25 0.00 0.00 0.00 10.41 -10.74 -4.59 0.00 -9.61 0.91 -15.79 1.91 -13.64 0.00 0.00 0.00 -10.43 -11.09 2.88 0.00 -9.60 -0.90 17.46 2.28 14.47 0.00 0.00 0.00 -0.09 -10.56 -0.56 
-0.3844 39.8864 -0.2057 -0.05 0.02 0.05 -1.00 -9.39 -0.18 0.00 24.23 0.09 0.71 -10.78 1.00 2.12 -8.95 0.26 -0.00 24.24 -0.13 -2.14 -11.20 -1.12 0.07 6.02 -0.25 0.00 0.00 0.00 10.44 -10.77 -4.58 -0.00 -9.64 0.91 -15.83 1.98 -13.65 0.00 0.00 0.00 -10.43 -11.12 2.88 0.00 -9.61 -0.90 17.46 2.31 14.51 0.00 0.00 0.00 -0.10 -10.55 -0.56 
-0.3739 39.8810 -0.1850 -0.04 0.02 0.05 -1.02 -9.37 -0.18 -0.00 24.25 0.09 0.72 -10.84 1.01 2.10 -8.95 0.26 0.00 24.32 -0.14 -2.12 -11.27 -1.11 0.06 6.02 -0.25 0.00 0.00 0.00 10.40 -10.81 -4.58 0.00 -9.66 0.92 -15.80 2.04 -13.67 0.00 0.00 0.00 -10.49 -11.16 2.90 -0.00 -9.60 -0.86 17.51 2.30 14.49 0.00 0.00 0.00 -0.20 -10.53 -0.58 
-0.3600 39.8760 -0.1462 -0.03 0.02 0.05 -1.05 -9.31 -0.18 0.00 24.29 0.08 0.75 -10.92 1.03 2.07 -8.93 0.27 -0.00 24.40 -0.15 -2.10 -11.38 -1.10 0.05 6.02 -0.25 0.00 0.00 0.00 10.35 -10.83 -4.57 0.00 -9.67 0.92 -15.79 2.08 -13.70 0.00 0.00 0.00 -10.55 -11.19 2.93 0.00 -9.62 -0.84 17.54 2.30 14.48 0.00 0.00 0.00 -0.28 -10.52 -0.60 
-0.3489 39.8742 -0.1135 -0.02 0.02 0.05 -1.08 -9.27 -0.15 -0.00 24.30 0.11 0.77 -10.98 0.98 2.04 -8.91 0.28 0.00 24.49 -0.17 -2.07 -11.49 -1.08 0.05 6.02 -0.28 0.00 0.00 0.00 10.27 -10.87 -4.65 -0.00 -9.68 0.91 -15.73 2.10 -13.63 0.00 0.00 0.00 -10.65 -11.21 2.93 0.00 -9.62 -0.81 17.62 2.28 14.56 0.00 0.00 0.00 -0.40 -10.51 -0.69 
-0.3637 39.8698 -0.1167 0.00 0.02 0.04 -1.07 -9.27 -0.13 -0.00 24.30 0.13 0.74 -10.97 0.93 2.04 -8.95 0.27 -0.00 24.55 -0.20 -2.09 -11.51 -1.04 0.04 6.02 -0.31 0.00 0.00 0.00 10.23 -10.89 -4.71 -0.00 -9.66 0.90 -15.70 2.09 -13.59 0.00 0.00 0.00 -10.71 -11.16 2.93 -0.00 -9.59 -0.78 17.72 2.18 14.71 0.00 0.00 0.00 -0.52 -10.48 -0.77 
